<svg data-name="Layer 1" xmlns="http://www.w3.org/2000/svg" xmlns:xlink="http://www.w3.org/1999/xlink" width="1003.96" height="687.01" viewBox="0 0 1003.96 687.01"><defs><linearGradient id="a" x1="378.33" y1="494.44" x2="378.33" y2="91.8" gradientTransform="translate(29.55 152.11)" gradientUnits="userSpaceOnUse"><stop offset="0" stop-color="gray" stop-opacity=".25"/><stop offset=".54" stop-color="gray" stop-opacity=".12"/><stop offset="1" stop-color="gray" stop-opacity=".1"/></linearGradient><linearGradient id="b" x1="901.92" y1="733" x2="901.92" y2="109" xlink:href="#a"/></defs><path d="M97.98 521.27c-4.29 9.21 1.85 19.15-.28 28.66-2.69 12-18.11 21.34-34.72 27.3s-35.16 9.58-51.35 16c-7 2.77-14.3 7.88-10.66 12.58 1.26 1.63 3.62 2.77 5.93 3.84 47.16 21.76 105.45 33.58 163.69 33.2 61.6-.41 121.92-14 183.47-12.44 79.38 2 156.16 29.06 234.66 21.26 33.32-3.33 64.26-12.77 96.71-18.67 47.72-8.67 97.91-9.54 147.33-12.39 37.11-2.14 79.52-7.69 97.25-28.55 12.82-15.08 7.44-35-10.62-47.77s-46.91-18.23-73.56-15.75c-14.33 1.33-28.57 4.78-42.9 3.41-8.32-.8-16-3.18-23.59-5.52-58.71-18.2-119.53-36.36-184.7-39-106-4.33-204.25 32.55-307.52 48.5-16.08 2.48-33.54 4.39-48.73.23-16-4.39-26.5-14.76-42.53-19.13-7.61-2.08-16.09-2.68-23.57-4.94-20.56-6.22-11-14.77-39.54-9-14.91 3.04-29.97 7.91-34.77 18.18z" fill="#f4004a" opacity=".1"/><path d="M109.68 207.06s55.76 55.76 24.3 138.5 54 220.33 54 220.33-.92-.13-2.61-.43C70.79 545.24 13.89 414.27 77.57 317c23.67-36.21 43.11-78.64 32.11-109.94z" fill="#f4004a"/><path d="M109.68 207.06s55.76 55.76 24.3 138.5 54 220.33 54 220.33-.92-.13-2.61-.43C70.79 545.24 13.89 414.27 77.57 317c23.67-36.21 43.11-78.64 32.11-109.94z" opacity=".1"/><path d="M109.68 207.06s31.48 68.35 0 124.11-5.4 212.24 78.24 234.72" fill="none" stroke="#535461" stroke-miterlimit="10"/><path d="M10.37 432.58S74 422.45 79.8 479.47s122.34 64.93 122.34 64.93-.76.52-2.19 1.45C103.73 609 11.74 586.09 25.6 502.21c5.16-31.21 4.73-62.51-15.23-69.63z" fill="#f4004a"/><path d="M10.37 432.58S74 422.45 79.8 479.47s122.34 64.93 122.34 64.93-.76.52-2.19 1.45C103.73 609 11.74 586.09 25.6 502.21c5.16-31.21 4.73-62.51-15.23-69.63z" fill="#f5f5f5" opacity=".2"/><path d="M10.37 432.58s49.39 10.84 45.33 55.75 73.34 98.74 146.44 56.07" fill="none" stroke="#535461" stroke-miterlimit="10"/><path fill="#f4004a" d="M676.74 564.63H153.31V237.66h66.94l27.54 34.02h428.95v292.95z"/><path opacity=".1" d="M676.74 564.63H153.31V237.66h66.94l27.54 34.02h428.95v292.95z"/><path fill="#f1f1f4" d="M250.718 187.121l235.573-85.207 132.648 366.731-235.574 85.208z"/><path fill="#fff" d="M295.21 211.822l66.561-24.076 5.665 15.66-66.562 24.076zm27.547 39.175l146.445-52.29 5.135 14.38-146.445 52.29zm10.975 30.732l146.445-52.29 5.134 14.38-146.444 52.29zm10.965 30.731l146.444-52.29 5.135 14.38-146.444 52.29zm10.975 30.722l146.444-52.29 5.135 14.38-146.444 52.29zm10.971 30.722l146.445-52.29 5.135 14.38-146.445 52.29zm10.975 30.731l146.445-52.29 5.134 14.38-146.444 52.291zm137.05 12.242l37.915-13.538 13.538 37.915-37.915 13.539z"/><path transform="rotate(-59.28 263.085 476.867)" fill="url(#a)" d="M278.56 243.92h258.63v402.63H278.56z"/><path fill="#f1f1f4" d="M78.154 344.31l128.022-215.443 335.393 199.3L413.547 543.61z"/><path fill="#fff" d="M127.995 335.173l36.172-60.874 14.323 8.51-36.173 60.874zm45.286 10.754l79.436-133.68 13.128 7.801-79.437 133.68zm28.05 16.672l79.436-133.68 13.127 7.801-79.436 133.68zm27.937 16.223l79.305-133.73 13.132 7.788L242.4 386.61zm28.154 17.105l79.436-133.679 13.128 7.8-79.436 133.68zm28.05 16.673l79.436-133.68 13.128 7.8-79.437 133.68zm28.06 16.671l79.436-133.679 13.127 7.8-79.436 133.68zm113.05-78.528l20.533-34.624 34.623 20.533-20.532 34.624z"/><path d="M1056.2 236.09q0-.74-.15-1.41t-.26-1.55q-.28-1.52-.64-2.94-.18-.71-.37-1.39a37.43 37.43 0 00-7.51-14.29l-.6-.68q-.6-.66-1.19-1.25t-1.16-1.09c-.38-.34-.75-.65-1.11-.95-.71-.58-1.38-1.07-2-1.47s-.84-.55-1.19-.76a6.73 6.73 0 00-2.8-.91l-6.17-.6-8.34-.82-30.11-11.63-1.19.42a68.94 68.94 0 01-2.23-7.37 6.71 6.71 0 002.38-1.73 5.42 5.42 0 001.64-2.09c.76-1.74-.69-5.46-.4-7.58.48-3.41 2.26-6.71 3.71-9.8 3.1-6.64 5.36-13.83 5-21.12s-3.71-14.68-9.9-18.76c-3.2-2.11-7-3.24-10.29-5.16-2.59-1.5-4.87-3.45-7.34-5.14a42.38 42.38 0 00-41.53-2.95c-6.26 3.07-11.6 7.65-17.51 11.32s-12.87 6.51-19.78 5.42a4.38 4.38 0 00-.21.85l-.58-.07c-1.19 3.23 1.73 6.41 4.42 8.62 5.1 4.18 10.89 8.36 17.55 8.5 2.57.06 5.29-.48 7.63.57a6.83 6.83 0 011.42.88A32.8 32.8 0 00935.8 182l-15.38-5.5s-.64.33-1.64.95l-21.37-14.13s-42.83-15.51-54.73 8.53 51.56 11.63 51.56 11.63l13.58 7.42a12.26 12.26 0 001.49 8.09l37 22.74c-7.48 2.29-19.77 6-22 6-3.17 0-11.9 3.1-17.45 15.51s-25.38 72.91-42.83 83-63.46 77.56-63.46 77.56l.21.53q-1.23.32-2.41.71c-11.51 3.72-19.25 11.57-23.92 17.92a7.6 7.6 0 005.36 12c18.16 2.28 28.08-6 32.85-12.32.31-.41.6-.81.87-1.2a6.42 6.42 0 004.48.2l22.21-17.84s-17.38 17-7.19 32.49l-.77 1.07a246.31 246.31 0 00-37.25 80.46s-9.52 7-10.31 34.9-10.31 72.91-10.31 72.91-6.35 53.52-2.38 69.81c0 0 .46.65 1.3 1.64-.3.35-.62.73-1 1.12-3.46 3.72-9.71 8.85-17 7.32-11.11-2.33-11.11 17.06 4.76 18.62 10.22 1 30.29 5.54 43.3 8.64a9.1 9.1 0 0011.31-9.67c-.78-6.95-2.19-15.36-4.76-21.35-.16-.37-.32-.73-.49-1.09.47-.43.93-.88 1.4-1.36 0 0 0-34.13 5.55-43.44 0 0 15.07-70.58 14.28-88.42-.62-14 39.09-68.32 56.38-91.28l-.14-.87c4.42-5.86 7.22-9.46 7.22-9.46l13.48 84.54s6.47 18.62 14.4 28.68c0 0 34.11 64.38 38.07 84.54 3 15.29 9.2 24.33 12 27.81-.33.33-.67.66-1 1-3.61 3.29-8.94 6.59-15 5.33-11.07-2.34-11.07 17.05 4.8 18.6 10.22 1 30.29 5.54 43.3 8.64a9.1 9.1 0 0011.31-9.67c-.9-8.07-2.67-18.11-6.09-24q-.43-.75-.9-1.41a8.38 8.38 0 003.15-2.21S991 638.78 991 625.59c0 0-8.73-50.42-38.07-69 0 0 2.78-63.05 11.13-98.15q.31-1.3.63-2.55c7.51-1.17 15.23-2.74 23.14-4.79l.79-23.27 4 18.62 44.38-27.17s-.39-4.89-1.14-12.39c-.38-3.75-.84-8.15-1.4-12.92-.44-3.82-.95-7.87-1.5-12q-.21-1.55-.43-3.12c-.58-4.18-1.22-8.41-1.91-12.55q-.39-2.33-.8-4.61c-.36-2-.74-4-1.13-5.94q-.29-1.45-.6-2.86t-.62-2.76q-.31-1.35-.63-2.65l-.32-1.28q-.33-1.26-.66-2.46a44.17 44.17 0 01-1.61-10.17q-.08-2 0-4.1t.4-4.08q.14-1 .34-2a45.92 45.92 0 012.25-7.92q.74-1.93 1.66-3.81c1.44-2.93 3-6.11 4.56-9.46q1.19-2.51 2.4-5.13t2.44-5.32c7.72-17.1 15.34-36.16 17.38-48.67.21-1.32.37-2.56.45-3.73a24.72 24.72 0 00.07-3.26z" transform="translate(-98.02 -109)" fill="url(#b)"/><path d="M825.69 76.16l-26.16-17.7s-41.55-15.39-53.09 8.46 50 11.54 50 11.54l26.16 14.62z" fill="#f7bbc3"/><path fill="#f1f1f4" d="M540.282 215.858L674.676 4.33l329.297 209.22-134.394 211.527z"/><path fill="#fff" d="M590.373 208.212l37.973-59.767 14.062 8.934-37.973 59.767zm44.952 12.105l83.39-131.25 12.889 8.19-83.39 131.248zm27.541 17.494l83.39-131.25 12.889 8.19L675.755 246zm27.54 17.499l83.39-131.249 12.888 8.19-83.39 131.248zm29.208 21.85l83.97-130.62 12.827 8.245-83.97 130.62zm25.873 13.145l83.39-131.25 12.888 8.189-83.39 131.25zm29.273 22.202l83.97-130.62 12.826 8.245-83.97 130.62zm113.907-79.287l21.59-33.982 33.982 21.59-21.59 33.982z"/><path d="M903.08 615.59c-12.62-3.08-32.09-7.58-42-8.57-15.39-1.54-15.39-20.77-4.62-18.46 5.84 1.25 11-2 14.51-5.29a34 34 0 003.01-3.27 8.89 8.89 0 015-3c5.77-1.26 17.78-3.16 25.17.82a10.87 10.87 0 014 4.36c3.32 5.89 5 15.84 5.91 23.85a8.9 8.9 0 01-10.98 9.56zm-194.65 7.7c-12.62-3.08-32.09-7.58-42-8.57-15.39-1.54-15.39-20.77-4.62-18.46 7 1.52 13.11-3.58 16.46-7.26.41-.45.78-.88 1.1-1.28a8.89 8.89 0 015-3c5.77-1.26 17.78-3.16 25.17.82 2.16 1.17 3.89 3.73 5.27 7 2.49 5.94 3.86 14.28 4.62 21.17a8.9 8.9 0 01-11 9.58z" fill="#b77983"/><path d="M714.78 592.52c-18.37 18.93-34.12-.35-36.51-3.53.41-.45.78-.88 1.1-1.28a8.89 8.89 0 015-3c5.77-1.26 17.78-3.16 25.17.82 2.13 1.12 3.86 3.68 5.24 6.99zm193.36-10.37c-8 5.44-34.75 4.1-34.75 4.1a26.36 26.36 0 01-2.42-3 34 34 0 003.01-3.25 8.89 8.89 0 015-3c5.77-1.26 17.78-3.16 25.17.82a10.87 10.87 0 013.99 4.33z" opacity=".1"/><path d="M909.55 578.56c-5.39 6.92-36.16 5.39-36.16 5.39s-9.23-9.23-13.08-29.24-36.93-83.86-36.93-83.86c-7.69-10-13.85-28.47-13.85-28.47l-13.08-83.86s-63.09 83.09-62.32 100.79S720.28 547 720.28 547c-5.39 9.23-5.39 43.08-5.39 43.08-20 20.77-36.93-3.85-36.93-3.85-3.85-16.16 2.31-69.24 2.31-69.24s9.23-44.62 10-72.32 10-34.62 10-34.62a246.78 246.78 0 0136.13-79.81c4.65-6.66 7.72-10.21 7.72-10.21l124.64 14.62c-2 4-3.79 9.73-5.36 16.51-8.1 34.81-10.79 97.36-10.79 97.36C881.08 467 889.54 517 889.54 517c0 13.08 20.01 61.56 20.01 61.56z" fill="#8499f0"/><g opacity=".05"><path d="M789.58 368.76l-1.6-10.25s-63.09 83.09-62.32 100.79-13.84 87.7-13.84 87.7c-5.39 9.23-5.39 43.08-5.39 43.08-4.19 4.35-8.25 6.71-12 7.72 6.06 1.59 13.43.43 21.28-7.72 0 0 0-33.85 5.39-43.08 0 0 14.62-70 13.85-87.71-.65-13.84 37.87-67.75 54.63-90.53z"/><path d="M890.31 517s-8.46-50-36.93-68.47c0 0 2.69-62.54 10.79-97.36 1.58-6.78 3.35-12.5 5.36-16.51L744.9 320s-.29.34-.82 1l116.23 13.63c-2 4-3.79 9.73-5.36 16.51-8.1 34.81-10.79 97.36-10.79 97.36 28.46 18.5 36.92 68.5 36.92 68.5 0 13.08 20 61.55 20 61.55-3.17 4.08-15.17 5.22-24.49 5.47 7.39.19 29.26.26 33.72-5.47.01.01-20-48.47-20-61.55z"/></g><path d="M721.05 309.28a27.86 27.86 0 01-3.65 6.37c-4.63 6.23-14.25 14.48-31.87 12.22a7.57 7.57 0 01-5.2-11.89c4.52-6.3 12-14.09 23.2-17.78a41.79 41.79 0 019.82-2z" fill="#f7bbc3"/><path d="M883.53 94.11l-61.7-22.57s-17.7 9.23-10.77 22.31l60 37.7z" fill="#d39999"/><path d="M883.53 94.11l-61.7-22.57s-17.7 9.23-10.77 22.31l60 37.7z" opacity=".1"/><path d="M885.7 56.92s-.77 36.16 15.39 48.47-46.93 19.23-46.93 19.23 10-36.93 0-56.16 31.54-11.54 31.54-11.54z" fill="#f7bbc3"/><path d="M868.77 334.66c-2 4-3.79 9.73-5.36 16.51-74.41 11.36-126.2-19.59-126.2-19.59-.28-.45-.55-.89-.8-1.33 4.65-6.66 7.72-10.21 7.72-10.21zm-147.72-25.38a27.86 27.86 0 01-3.65 6.37c-7.12-1.18-12.82-14.8-13.87-17.46a41.79 41.79 0 019.82-2z" opacity=".1"/><path d="M891.85 89.23l-27.7 10-11.54 15.39s-23.85 7.69-26.93 7.69-11.54 3.08-16.93 15.39-24.61 72.3-41.54 82.3-61.55 77-61.55 77 7.69 20.77 16.93 17.7l21.54-17.7s-16.93 16.93-6.92 32.31c0 0 63.09 37.7 150 14.62l.77-23.08 3.85 18.46 43.15-26.96s-3.86-49.66-10.81-74.94a45.66 45.66 0 013-31.84c11.17-23.28 28.41-62.16 26.31-76.34-2.48-16.71-11.92-24-15.52-26.16a6.43 6.43 0 00-2.71-.9l-14.08-1.41z" fill="#d39999"/><path d="M844.53 166.56s-15.39 71.55-32.31 83.09-62.32 48.47-63.86 54.63" opacity=".05"/><path d="M837.61 164.25s-15.39 71.55-32.31 83.09-62.32 48.47-63.86 54.66" fill="#d39999"/><path d="M852.23 114.24s53.09-17.7 68.47-13.08" opacity=".1"/><path d="M927.09 205.58c11.17-23.28 28.41-62.16 26.31-76.34-2.48-16.71-11.92-24-15.52-26.16a6.43 6.43 0 00-2.71-.9l-6-.6a6.32 6.32 0 011.78.73c3.6 2.2 13 9.45 15.52 26.16 2.1 14.17-15.14 53.06-26.31 76.34a45.66 45.66 0 00-3 31.84c7 25.28 10.81 74.94 10.81 74.94l-37.1 23.19.94 4.51 43.17-26.94s-3.86-49.66-10.81-74.94a45.66 45.66 0 012.92-31.83zm-12.93-105.57l6.67.66-28.98-11.44-2.6.94 24.91 9.84zm-76.55 138.87s23.85-13.08 31.54-10 36.16-.77 36.16-.77M882.98 66.54c-.88-7.71 2.69-6.54 2.69-6.54s-41.55-7.69-31.54 11.54c2.5 4.82 3.75 10.74 4.22 16.92h.39c11.62.01 18.35-12.9 24.24-21.92z" opacity=".05"/><circle cx="858.77" cy="52.3" r="33.08" fill="#f7bbc3"/><path d="M894.87 62.09c3-6.58 5.2-13.72 4.83-21s-3.6-14.57-9.6-18.61c-3.1-2.09-6.76-3.21-10-5.11-2.51-1.49-4.73-3.42-7.12-5.1a40.33 40.33 0 00-40.28-2.93c-6.07 3-11.25 7.59-17 11.23s-12.48 6.45-19.19 5.37c-1.15 3.2 1.68 6.36 4.29 8.55 4.95 4.15 10.56 8.29 17 8.43 2.5.06 5.13-.48 7.4.57a10.62 10.62 0 013.78 3.51 68.76 68.76 0 017.85 13.31c.86 1.93 1.74 4 3.52 5.17 3 1.9 6.83.32 10.35.18 5.48-.21 10.4 3.23 14.46 6.93s7.91 7.9 13 9.85c3.82 1.45 11.46 1.4 13.41-3.17.73-1.72-.67-5.41-.38-7.52.54-3.33 2.28-6.59 3.68-9.66z" opacity=".1"/><path d="M895.64 61.32c3-6.58 5.2-13.72 4.83-21s-3.6-14.57-9.6-18.61c-3.1-2.09-6.76-3.21-10-5.11-2.51-1.49-4.73-3.42-7.12-5.1a40.33 40.33 0 00-40.28-2.93c-6.07 3-11.25 7.59-17 11.23s-12.48 6.45-19.19 5.37c-1.15 3.2 1.68 6.36 4.29 8.55 4.95 4.15 10.56 8.29 17 8.43 2.5.06 5.13-.48 7.4.57a10.62 10.62 0 013.78 3.51 68.76 68.76 0 017.85 13.31c.86 1.93 1.74 4 3.52 5.17 3 1.9 6.83.32 10.35.18 5.48-.21 10.4 3.23 14.46 6.93s7.91 7.9 13 9.85c3.82 1.45 11.46 1.4 13.41-3.17.73-1.72-.67-5.41-.38-7.52.54-3.32 2.28-6.59 3.68-9.66z" fill="#9b6c7a"/><path fill="#f4004a" d="M676.74 578.51H153.31V251.54h66.94l27.54 34.02h428.95v292.95z"/><path d="M182.98 611.13s-22.57-4.51-28.59-10.53-33.1-16.55-36.11-9-40.62 33.1-15 37.62 60.18 6 67.71 3 11.99-21.09 11.99-21.09z" fill="#a8a8a8"/><path d="M103.24 626.39c25.58 4.51 60.18 6 67.71 3 5.73-2.29 9.71-13.3 11.28-18.43l.75.16s-4.51 18.06-12 21.06-42.13 1.5-67.71-3c-7.38-1.3-9.49-4.36-8.7-8.24.6 2.54 3.17 4.48 8.67 5.45z" opacity=".2"/><path d="M649.36 652.49s-34.43-6.89-43.62-16.07-50.5-25.25-55.09-13.77-62 50.5-23 57.39 91.82 9.18 103.3 4.59 18.41-32.14 18.41-32.14z" fill="#a8a8a8"/><path d="M527.7 675.77c39 6.89 91.82 9.18 103.3 4.59 8.74-3.5 14.82-20.3 17.22-28.11l1.15.24s-6.89 27.51-18.39 32.13-64.28 2.3-103.3-4.59c-11.27-2-14.49-6.66-13.27-12.56.98 3.85 4.9 6.82 13.29 8.3z" opacity=".2"/><path opacity=".1" d="M351.98 405.02h116v20h-116z"/></svg>